<svg xmlns="http://www.w3.org/2000/svg" version="1.1" xmlns:xlink="http://www.w3.org/1999/xlink" xmlns:svgjs="http://svgjs.com/svgjs" width="768" height="1024" preserveAspectRatio="none" viewBox="0 0 768 1024"><g mask="url(&quot;#SvgjsMask1014&quot;)" fill="none"><rect width="768" height="1024" x="0" y="0" fill="rgba(0, 51, 124, 1)"></rect><path d="M0,484.824C88.395,472.897,160.044,410.385,223.366,347.565C277.539,293.821,292.07,216.155,334.648,152.829C388.421,72.854,510.271,23.528,505.97,-72.748C501.77,-166.774,383.394,-208.18,315.605,-273.473C254.721,-332.116,205.725,-402.91,128.2,-436.611C44.39,-473.045,-53.263,-504.416,-138.228,-470.762C-222.175,-437.511,-250.908,-336.645,-305.585,-264.791C-356.184,-198.295,-424.605,-144.702,-447.492,-64.34C-472.143,22.215,-469.947,115.888,-437.962,200.01C-404.793,287.247,-344.024,362.686,-265.783,413.567C-187.3,464.606,-92.778,497.343,0,484.824" fill="#002963"></path><path d="M768 1397.53C838.092 1393.8690000000001 908.206 1370.431 960.683 1323.821 1009.716 1280.27 1032.6190000000001 1215.096 1045.741 1150.84 1056.99 1095.758 1036.625 1042.167 1029.593 986.389 1022.409 929.404 1038.586 865.363 1003.975 819.527 968.972 773.172 905.481 761.822 849.193 747.481 794.649 733.5840000000001 739.395 727.8910000000001 684.026 738.009 623.922 748.992 553.384 757.663 518.596 807.891 483.85 858.059 522.61 927.115 511.492 987.12 499.661 1050.969 442.724 1104.107 451.795 1168.406 461.673 1238.42 504.677 1303.158 561.933 1344.646 620.544 1387.116 695.718 1401.305 768 1397.53" fill="#003d95"></path></g><defs><mask id="SvgjsMask1014"><rect width="768" height="1024" fill="#ffffff"></rect></mask></defs></svg>