<svg xmlns="http://www.w3.org/2000/svg" version="1.1" xmlns:xlink="http://www.w3.org/1999/xlink" xmlns:svgjs="http://svgjs.com/svgjs" width="1300" height="1550" preserveAspectRatio="none" viewBox="0 0 1300 1550"><g mask="url(&quot;#SvgjsMask1057&quot;)" fill="none"><rect width="1300" height="1550" x="0" y="0" fill="rgba(43, 38, 39, 1)"></rect><path d="M0,499.662C104.694,504.813,216.255,530.104,307.349,478.245C399.78,425.625,458.42,324.856,487.012,222.411C513.515,127.452,482.414,29.798,459.254,-66.031C438.119,-153.481,413.675,-239.556,358.236,-310.413C300.856,-383.751,227.406,-444.333,139.419,-474.817C48.891,-506.181,-47.708,-500.492,-142.039,-483.74C-245.657,-465.339,-349.879,-440.487,-431.053,-373.509C-520.675,-299.56,-601.97,-203.924,-620.227,-89.175C-638.568,26.104,-590.164,142.18,-528.909,241.545C-472.225,333.495,-385.582,401.552,-288.507,448.926C-198.941,492.636,-99.543,494.764,0,499.662" fill="#211d1e"></path><path d="M1300 2027.955C1404.818 2016.157 1511.503 2070.111 1609.999 2032.367 1718.49 1990.7930000000001 1838.5149999999999 1921.98 1869.071 1809.886 1899.8400000000001 1697.01 1778.974 1599.296 1759.497 1483.934 1740.753 1372.911 1820.627 1246.6770000000001 1758.166 1152.997 1695.924 1059.645 1558.936 1065.27 1453.955 1025.6770000000001 1338.918 982.291 1233.708 892.86 1111.857 909.243 985.1700000000001 926.276 869.142 1008.598 796.856 1114.0230000000001 727.529 1215.133 744.178 1346.247 728.824 1467.877 713.771 1587.12 669.731 1706.464 707.673 1820.507 747.451 1940.07 822.732 2065.946 941.655 2107.596 1059.527 2148.878 1175.892 2041.925 1300 2027.955" fill="#352f30"></path></g><defs><mask id="SvgjsMask1057"><rect width="1300" height="1550" fill="#ffffff"></rect></mask></defs></svg>