<svg xmlns="http://www.w3.org/2000/svg" version="1.1" xmlns:xlink="http://www.w3.org/1999/xlink" xmlns:svgjs="http://svgjs.com/svgjs" width="1920" height="1080" preserveAspectRatio="none" viewBox="0 0 1920 1080"><g mask="url(&quot;#SvgjsMask1557&quot;)" fill="none"><rect width="1920" height="1080" x="0" y="0" fill="rgba(43, 38, 39, 1)"></rect><path d="M0,858.062C160.027,851.589,304.275,769.148,433.482,674.511C556.847,584.154,645.357,462.098,721.59,329.539C804.725,184.98,923.318,35.667,895.428,-128.743C867.596,-292.814,699.805,-387.008,580.378,-502.901C471.458,-608.598,364.236,-709.577,227.982,-776.437C69.598,-854.156,-110.115,-994.394,-270.221,-920.288C-435.985,-843.563,-395.164,-583.495,-504.689,-437.315C-602.238,-307.118,-824.609,-281.796,-866.41,-124.571C-907.931,31.601,-777.958,177.699,-706.769,322.771C-637.609,463.708,-581.769,615.731,-456.621,710.516C-326.474,809.087,-163.129,864.661,0,858.062" fill="#211d1e"></path><path d="M1920 1782.815C2083.184 1813.246 2248.922 1891.051 2405.12 1834.862 2572.091 1774.797 2713.675 1637.377 2780.8540000000003 1473.1390000000001 2847.151 1311.058 2825.264 1122.584 2763.494 958.724 2708.199 812.039 2564.464 728.8299999999999 2457.185 614.527 2355.024 505.677 2283.553 365.87699999999995 2148.128 303.06600000000003 2001.916 235.25099999999998 1832.462 209.87400000000002 1677.085 252.70899999999995 1520.586 295.85299999999995 1396.4189999999999 411.66600000000005 1294.848 538.302 1195.988 661.559 1146.871 810.185 1107.2649999999999 963.146 1063.238 1133.182 960.741 1326.319 1051.941 1476.429 1144.6979999999999 1629.103 1370.2559999999999 1613.8339999999998 1538.714 1673.292 1665.987 1718.214 1787.319 1758.0720000000001 1920 1782.815" fill="#352f30"></path></g><defs><mask id="SvgjsMask1557"><rect width="1920" height="1080" fill="#ffffff"></rect></mask></defs></svg>