<svg xmlns="http://www.w3.org/2000/svg" version="1.1" xmlns:xlink="http://www.w3.org/1999/xlink" xmlns:svgjs="http://svgjs.com/svgjs" width="500" height="1200" preserveAspectRatio="none" viewBox="0 0 500 1200"><g mask="url(&quot;#SvgjsMask1003&quot;)" fill="none"><rect width="500" height="1200" x="0" y="0" fill="rgba(43, 38, 39, 1)"></rect><path d="M0,470.002C91.22,485.801,193.774,471.937,266.392,414.514C337.484,358.298,342.561,255.995,376.773,172.067C409.328,92.205,467.865,19.58,462.469,-66.493C456.91,-155.168,418.5,-247.871,347.13,-300.79C278.554,-351.637,179.248,-307.868,98.718,-336.204C11.05,-367.052,-45.725,-477.263,-138.493,-471.665C-230.868,-466.09,-293.727,-376.918,-356.31,-308.745C-420.5,-238.822,-500.632,-167.412,-504.85,-72.587C-509.024,21.255,-432.714,96.346,-377.716,172.497C-332.119,235.632,-274.208,283.29,-213.028,331.478C-145.112,384.971,-85.185,455.248,0,470.002" fill="#211d1e"></path><path d="M500 1566.27C569.038 1562.6970000000001 632.157 1533.467 691.2090000000001 1497.526 751.4970000000001 1460.833 820.225 1423.532 843.813 1357.0140000000001 867.05 1291.485 814.3969999999999 1224.552 812.655 1155.047 810.5740000000001 1072.019 888.113 973.578 832.656 911.752 776.829 849.514 669.3050000000001 918.512 587.05 903.534 517.385 890.8489999999999 462.598 830.698 391.791 831.4739999999999 309.76800000000003 832.3720000000001 223.723 852.79 163.21699999999998 908.1759999999999 100.17700000000002 965.883 71.29199999999997 1052.02 58.543000000000006 1136.528 45.735000000000014 1221.422 45.692999999999984 1313.859 91.01299999999998 1386.778 134.66899999999998 1457.019 219.90300000000002 1484.766 295.63300000000004 1518.002 361.054 1546.713 428.652 1569.963 500 1566.27" fill="#352f30"></path></g><defs><mask id="SvgjsMask1003"><rect width="500" height="1200" fill="#ffffff"></rect></mask></defs></svg>