<svg xmlns="http://www.w3.org/2000/svg" version="1.1" xmlns:xlink="http://www.w3.org/1999/xlink" xmlns:svgjs="http://svgjs.com/svgjs" width="800" height="1500" preserveAspectRatio="none" viewBox="0 0 800 1500"><g mask="url(&quot;#SvgjsMask1029&quot;)" fill="none"><rect width="800" height="1500" x="0" y="0" fill="rgba(43, 38, 39, 1)"></rect><path d="M0,682.65C128.239,698.469,256.468,637.22,358.906,558.468C456.8,483.21,530.164,374.914,557.057,254.399C581.603,144.404,504.601,40.761,499.558,-71.826C493.709,-202.405,590.575,-341.923,525.272,-455.151C460.507,-567.447,309.267,-594.417,182.507,-621.562C62.505,-647.26,-63.392,-649.981,-177.856,-605.722C-287.35,-563.384,-362.173,-469.155,-439.679,-380.984C-517.73,-292.193,-620.028,-208.413,-630.608,-90.668C-641.098,26.075,-552.394,123.948,-494.19,225.689C-441.243,318.239,-384.467,404.038,-306.181,476.427C-213.966,561.695,-124.65,667.274,0,682.65" fill="#211d1e"></path><path d="M800 1848.461C874.76 1859.342 958.946 1887.054 1022.032 1845.489 1085.115 1803.926 1076.98 1709.397 1112.366 1642.653 1150.834 1570.096 1255.6979999999999 1517.266 1238.6399999999999 1436.933 1221.2269999999999 1354.929 1093.629 1356.491 1038.241 1293.563 983.562 1231.441 1003.056 1102.2 923.61 1079.022 844.113 1055.829 789.908 1171.903 711.385 1198.205 637.4970000000001 1222.955 545.101 1177.796 484.075 1226.25 422.442 1275.186 413.19 1364.887 403.145 1442.941 393.214 1520.107 385.938 1604.246 426.917 1670.381 466.661 1734.524 547.854 1753.88 615.952 1786.385 675.59 1814.851 734.606 1838.943 800 1848.461" fill="#352f30"></path></g><defs><mask id="SvgjsMask1029"><rect width="800" height="1500" fill="#ffffff"></rect></mask></defs></svg>