<svg xmlns="http://www.w3.org/2000/svg" version="1.1" xmlns:xlink="http://www.w3.org/1999/xlink" xmlns:svgjs="http://svgjs.com/svgjs" width="1300" height="680" preserveAspectRatio="none" viewBox="0 0 1300 680"><g mask="url(&quot;#SvgjsMask1042&quot;)" fill="none"><rect width="1300" height="680" x="0" y="0" fill="rgba(0, 51, 124, 1)"></rect><path d="M0,393.994C72.349,412.09,145.604,364.452,207.169,322.361C267.551,281.079,316.506,224.938,345.496,157.783C374.111,91.498,381.706,18.025,369.247,-53.09C357.028,-122.832,332.742,-196.825,275.959,-239.12C221.609,-279.603,144.539,-251.783,79.056,-269.239C15.975,-286.055,-34.99,-348.536,-99.608,-339.235C-165.388,-329.767,-211.401,-271.115,-255.196,-221.128C-299.193,-170.91,-352.322,-117.437,-352.429,-50.672C-352.534,15.118,-293.97,63.251,-255.735,116.79C-224.63,160.345,-186.08,193.738,-149.789,233.076C-99.072,288.051,-72.561,375.845,0,393.994" fill="#002963"></path><path d="M1300 1245.272C1403.975 1245.7440000000001 1484.0819999999999 1153.714 1556.468 1079.0729999999999 1617.374 1016.269 1636.034 929.185 1679.926 853.506 1729.908 767.328 1840.066 702.787 1832.313 603.465 1824.615 504.84299999999996 1708.431 456.981 1643.171 382.64 1578.439 308.901 1539.038 210.046 1450.263 168.252 1355.661 123.71400000000006 1243.884 117.745 1143.633 147.461 1043.504 177.14 956.86 245.442 898.245 331.877 843.0830000000001 413.221 840.444 514.653 828.473 612.205 816.7529999999999 707.715 788.483 807.819 829.139 895.035 869.701 982.05 967.991 1019.454 1045.023 1076.752 1128.4569999999999 1138.812 1196.017 1244.8 1300 1245.272" fill="#003d95"></path></g><defs><mask id="SvgjsMask1042"><rect width="1300" height="680" fill="#ffffff"></rect></mask></defs></svg>