<svg xmlns="http://www.w3.org/2000/svg" version="1.1" xmlns:xlink="http://www.w3.org/1999/xlink" xmlns:svgjs="http://svgjs.com/svgjs" width="375" height="680" preserveAspectRatio="none" viewBox="0 0 375 680"><g mask="url(&quot;#SvgjsMask1048&quot;)" fill="none"><rect width="375" height="680" x="0" y="0" fill="rgba(0, 51, 124, 1)"></rect><path d="M0,300.57C55.028,293.278,96.813,253.246,144.593,224.992C194.516,195.47,256.579,180.481,286.796,130.975C318.138,79.627,317.179,15.17,309.045,-44.434C300.87,-104.338,289.308,-172.723,240.483,-208.38C192.199,-243.642,121.976,-203.357,65.312,-222.433C4.817,-242.799,-31.22,-330.992,-94.276,-321.076C-155.13,-311.506,-176.186,-232.776,-207.239,-179.573C-233.245,-135.017,-258.632,-88.939,-259.871,-37.364C-261.037,11.158,-227.438,51.075,-213.901,97.685C-197.35,154.673,-214.568,226.041,-171.512,266.879C-128.365,307.803,-58.953,308.382,0,300.57" fill="#002963"></path><path d="M375 927.465C420.485 935.037 462.414 901.077 499.26099999999997 873.354 534.123 847.125 568.0029999999999 815.508 579.6759999999999 773.472 590.751 733.587 567.017 694.205 560.351 653.351 553.845 613.476 563.713 569.58 540.962 536.193 517.364 501.56399999999996 477.425 479.252 436.284 471.28499999999997 396.817 463.642 359.702 485.86199999999997 320.224 493.448 275.56 502.03 223.857 489.624 188.972 518.806 153.229 548.706 143.938 599.704 137.958 645.919 132.039 691.668 128.174 742.975 155.122 780.415 181.339 816.84 237.453 811.031 274.758 835.98 313.139 861.648 329.454 919.883 375 927.465" fill="#003d95"></path></g><defs><mask id="SvgjsMask1048"><rect width="375" height="680" fill="#ffffff"></rect></mask></defs></svg>